# xmcd
#
# Track frame offsets: 
#        150
#        19437
#        35642
#        53469
#        69864
#        83174
#        100083
#        117377
#        133978
#        154515
#
# Disc length: 2341 seconds
#
# Revision: 2
# Processed by: cddbd v1.5.2PL0 Copyright (c) Steve Scherf et al.
# Submitted via: ExactAudioCopyFreeDBPlugin 1.0
#
DISCID=7d09230a
DTITLE=Pat Green - What I'm For
DYEAR=2008
DGENRE=Country
TTITLE0=Footsteps of Our Fathers
TTITLE1=What I'm For
TTITLE2=Feeling Pretty Good Tonight
TTITLE3=Lucky
TTITLE4=In This World
TTITLE5=Country Star
TTITLE6=Let Me
TTITLE7=In It for the Money
TTITLE8=Carry On
TTITLE9=In the Middle of the Night
EXTD=Corrected typos and capitalization.
EXTT0=
EXTT1=
EXTT2=
EXTT3=
EXTT4=
EXTT5=
EXTT6=
EXTT7=
EXTT8=
EXTT9=
PLAYORDER=
